<svg xmlns="http://www.w3.org/2000/svg" viewBox="0 0 64 64"><path fill="#dd3e3e" d="M20 54H4.6A1.62 1.62 0 0 1 3 52.38V51.6a1.6 1.6 0 0 1 1.08-1.53l14.28-5 7.5-2.62 19.4-22.69A4.95 4.95 0 0 1 54 23.05v.55a5.11 5.11 0 0 1-.6 2.4L51 29l-6 7L33 50l-8 3zM61 28.93V61H57c-.13-8.31 1-15.14-3-19.6"/><line x1="15" x2="15" y1="4" y2="7" fill="none" stroke="#fbb03b" stroke-miterlimit="10" stroke-width="2"/><line x1="15" x2="15" y1="9" y2="12" fill="none" stroke="#fbb03b" stroke-miterlimit="10" stroke-width="2"/><line x1="16" x2="19" y1="8" y2="8" fill="none" stroke="#fbb03b" stroke-miterlimit="10" stroke-width="2"/><line x1="11" x2="14" y1="8" y2="8" fill="none" stroke="#fbb03b" stroke-miterlimit="10" stroke-width="2"/><line x1="32" x2="32" y1="16" y2="19" fill="none" stroke="#fbb03b" stroke-miterlimit="10" stroke-width="2"/><line x1="32" x2="32" y1="21" y2="24" fill="none" stroke="#fbb03b" stroke-miterlimit="10" stroke-width="2"/><line x1="33" x2="36" y1="20" y2="20" fill="none" stroke="#fbb03b" stroke-miterlimit="10" stroke-width="2"/><line x1="28" x2="31" y1="20" y2="20" fill="none" stroke="#fbb03b" stroke-miterlimit="10" stroke-width="2"/><line x1="8" x2="8" y1="28" y2="31" fill="none" stroke="#fbb03b" stroke-miterlimit="10" stroke-width="2"/><line x1="8" x2="8" y1="33" y2="36" fill="none" stroke="#fbb03b" stroke-miterlimit="10" stroke-width="2"/><line x1="9" x2="12" y1="32" y2="32" fill="none" stroke="#fbb03b" stroke-miterlimit="10" stroke-width="2"/><line x1="4" x2="7" y1="32" y2="32" fill="none" stroke="#fbb03b" stroke-miterlimit="10" stroke-width="2"/><path fill="#f73939" d="M61,30.05v.55A5.09,5.09,0,0,1,59.71,34l-17,25.43a3.52,3.52,0,0,1-3,1.59H11.6A1.62,1.62,0,0,1,10,59.38V58.6a1.6,1.6,0,0,1,1.08-1.53l14.28-5,7.5-2.62,19.4-22.69A4.95,4.95,0,0,1,61,30.05Z"/><path fill="#f99d9d" d="M55.24,30.37,36,52.72a6.53,6.53,0,0,1-9.28.65h0A1,1,0,0,1,27,51.63l5.9-2.06L52.47,26.75a5.06,5.06,0,0,1,1.82-1.36l.65.57A3.15,3.15,0,0,1,55.24,30.37Z"/><rect width="4" height="3.93" x="57" y="57.07" fill="#333"/><path fill="#f99d9d" d="M48.24,23.37,29,45.72a6.53,6.53,0,0,1-9.28.65h0A1,1,0,0,1,20,44.63l5.9-2.06L45.47,19.75a5.06,5.06,0,0,1,1.82-1.36l.65.57A3.15,3.15,0,0,1,48.24,23.37Z"/></svg>